<svg xmlns="http://www.w3.org/2000/svg" xmlns:xlink="http://www.w3.org/1999/xlink" width="320" zoomAndPan="magnify" viewBox="0 0 240 158.249993" height="211" preserveAspectRatio="xMidYMid meet" version="1.0"><defs><clipPath id="d8775a2d63"><path d="M 2 0 L 239.433594 0 L 239.433594 156.757812 L 2 156.757812 Z M 2 0 " clip-rule="nonzero"/></clipPath><clipPath id="bfaf28808d"><path d="M 124 1 L 237.433594 1 L 237.433594 156.757812 L 124 156.757812 Z M 124 1 " clip-rule="nonzero"/></clipPath><clipPath id="4c28d970bc"><path d="M 1 1 L 114 1 L 114 156.757812 L 1 156.757812 Z M 1 1 " clip-rule="nonzero"/></clipPath><clipPath id="7a1390b3d7"><rect x="0" width="238" y="0" height="157"/></clipPath></defs><g clip-path="url(#d8775a2d63)"><g transform="matrix(1, 0, 0, 1, 2, 0.000000000000000333)"><g clip-path="url(#7a1390b3d7)"><g clip-path="url(#bfaf28808d)"><path fill="#e5e5e3" d="M 124.386719 98.554688 C 126.3125 124.863281 139.515625 148.171875 168.082031 155.183594 C 172.433594 156.253906 176.910156 156.78125 181.394531 156.78125 C 212.144531 156.78125 237.070312 131.855469 237.070312 101.105469 C 237.070312 87.515625 232.011719 74.222656 222.972656 64.078125 C 218.511719 59.078125 213.164062 54.890625 207.230469 51.777344 C 200.316406 48.148438 193.484375 47.492188 186.125 45.507812 C 179.320312 43.675781 179.332031 34.421875 181.046875 28.941406 C 183.984375 19.523438 190.988281 13.273438 200.835938 12.109375 C 202.859375 11.871094 204.914062 11.792969 206.90625 11.328125 C 210.824219 10.414062 214.207031 7.089844 209.84375 4.304688 C 203.109375 0.0078125 192.019531 0.792969 184.558594 2.253906 C 175.976562 3.9375 167.890625 7.71875 160.730469 12.6875 C 136.660156 29.390625 122.019531 66.230469 124.386719 98.554688 Z M 124.386719 98.554688 " fill-opacity="1" fill-rule="nonzero"/></g><g clip-path="url(#4c28d970bc)"><path fill="#e5e5e3" d="M 1.308594 98.554688 C 3.234375 124.863281 16.4375 148.171875 45.003906 155.183594 C 49.351562 156.253906 53.832031 156.78125 58.316406 156.78125 C 89.066406 156.78125 113.992188 131.855469 113.992188 101.105469 C 113.992188 87.515625 108.933594 74.222656 99.894531 64.078125 C 95.433594 59.078125 90.085938 54.890625 84.148438 51.777344 C 77.234375 48.148438 70.40625 47.492188 63.046875 45.507812 C 56.242188 43.675781 56.253906 34.421875 57.96875 28.941406 C 60.90625 19.523438 67.910156 13.273438 77.757812 12.109375 C 79.78125 11.871094 81.835938 11.792969 83.828125 11.328125 C 87.746094 10.414062 91.128906 7.089844 86.765625 4.304688 C 80.03125 0.0078125 68.941406 0.792969 61.480469 2.253906 C 52.898438 3.9375 44.808594 7.71875 37.652344 12.6875 C 13.582031 29.390625 -1.058594 66.230469 1.308594 98.554688 Z M 1.308594 98.554688 " fill-opacity="1" fill-rule="nonzero"/></g></g></g></g></svg>